# xmcd
#
# Track frame offsets: 
#        150
#        12852
#        26424
#        40159
#        51683
#        65378
#        78477
#        92111
#        105611
#        117951
#        129371
#        142921
#        155535
#        168287
#        181511
#        195128
#        207197
#        226465
#        249698
#        275844
#
# Disc length: 4025 seconds
#
# Revision: 0
# Processed by: cddbd v1.5.2PL0 Copyright (c) Steve Scherf et al.
# Submitted via: ExactAudioCopyFreeDBPlugin 1.0
#
DISCID=090fb714
DTITLE=B.B. King - B.B. King and Friends - The Album
DYEAR=2015
DGENRE=Blues
TTITLE0=Every day
TTITLE1=Sneakin around
TTITLE2=The woman
TTITLE3=Please accept my love
TTITLE4=You upset me baby
TTITLE5=When my heart beats like a hammer
TTITLE6=3 o'clock blues
TTITLE7=Rock me baby
TTITLE8=Sugar mama
TTITLE9=Catfish blues
TTITLE10=Sweet little angel
TTITLE11=Ten long years
TTITLE12=Please love me
TTITLE13=I need you so bad
TTITLE14=Sweet sixteen
TTITLE15=I'll survive
TTITLE16=Hummingbird
TTITLE17=Don't answer to the door
TTITLE18=Guess who
TTITLE19=Watch yourself
EXTD=
EXTT0=
EXTT1=
EXTT2=
EXTT3=
EXTT4=
EXTT5=
EXTT6=
EXTT7=
EXTT8=
EXTT9=
EXTT10=
EXTT11=
EXTT12=
EXTT13=
EXTT14=
EXTT15=
EXTT16=
EXTT17=
EXTT18=
EXTT19=
PLAYORDER=
